<?xml version="1.0" standalone="no"?>
<!DOCTYPE svg PUBLIC "-//W3C//DTD SVG 20010904//EN"
 "http://www.w3.org/TR/2001/REC-SVG-20010904/DTD/svg10.dtd">
<svg version="1.0" xmlns="http://www.w3.org/2000/svg"
 width="1600.000000pt" height="800.000000pt" viewBox="0 0 1600.000000 800.000000"
 preserveAspectRatio="xMidYMid meet">

<g transform="translate(0.000000,800.000000) scale(0.100000,-0.100000)"
fill="#000000" stroke="none">
<path d="M7953 6050 c-29 -4 -84 -23 -121 -41 -107 -53 -1087 -715 -1154 -781
-36 -34 -69 -79 -86 -115 l-27 -58 -3 -267 -3 -268 645 0 646 0 0 -355 c0
-298 -2 -355 -14 -348 -7 4 -174 112 -369 238 -449 290 -451 291 -517 317 -46
18 -82 22 -224 26 l-169 4 5 -113 c4 -103 7 -121 37 -185 19 -41 51 -89 74
-112 36 -35 382 -269 717 -486 58 -38 137 -90 175 -116 127 -86 319 -203 380
-232 126 -58 245 -58 370 2 33 16 173 105 310 199 138 93 384 261 548 372 328
223 394 279 428 367 27 72 36 284 13 303 -10 8 -62 9 -186 4 -161 -7 -176 -9
-218 -33 -61 -35 -797 -525 -836 -557 l-31 -25 -6 157 c-4 87 -7 249 -7 360 0
202 0 203 23 208 12 3 249 6 527 8 494 2 506 2 552 24 63 29 132 94 160 151
20 41 23 62 23 167 0 111 -2 124 -28 177 -42 86 -120 153 -360 310 -121 79
-316 207 -435 285 -416 273 -567 367 -622 389 -65 26 -145 35 -217 24z m607
-309 c0 -5 -10 -11 -22 -14 -37 -8 -297 -86 -377 -113 -73 -24 -113 -28 -49
-4 170 62 404 136 441 139 4 1 7 -3 7 -8z m-370 -241 c25 -10 88 -45 140 -79
52 -33 115 -73 140 -87 69 -42 509 -335 514 -342 2 -4 -385 -6 -862 -4 -476 1
-887 -2 -914 -6 -26 -5 -48 -6 -48 -2 0 4 80 60 178 125 616 405 599 394 660
411 55 15 128 9 192 -16z"/>
<path d="M7970 5410 c-11 -8 -7 -9 15 -4 37 8 45 14 19 14 -10 0 -26 -5 -34
-10z"/>
<path d="M8061 5416 c2 -2 27 -6 54 -9 32 -4 43 -3 30 3 -19 8 -93 14 -84 6z"/>
<path d="M7839 5323 c-13 -16 -12 -17 4 -4 9 7 17 15 17 17 0 8 -8 3 -21 -13z"/>
<path d="M8350 5269 c8 -5 33 -19 54 -31 22 -11 46 -27 54 -34 7 -8 17 -14 21
-14 4 0 27 -18 52 -40 l44 -40 -509 0 -509 0 23 25 c13 13 31 27 42 31 10 3
18 10 18 15 0 6 -21 -5 -47 -23 -51 -34 -73 -53 -73 -62 0 -3 252 -6 560 -6
308 0 560 3 560 8 0 7 -82 57 -87 54 -2 -1 -11 5 -20 14 -35 31 -174 114 -190
114 -4 0 -1 -5 7 -11z"/>
<path d="M6582 5309 c-18 -16 -32 -33 -32 -36 0 -4 15 6 32 23 18 16 35 30 37
32 2 1 2 4 0 7 -3 2 -19 -9 -37 -26z"/>
<path d="M6431 5034 c0 -11 3 -14 6 -6 3 7 2 16 -1 19 -3 4 -6 -2 -5 -13z"/>
<path d="M9726 4433 c-3 -27 -9 -88 -13 -138 -4 -57 -9 -82 -14 -70 -7 18 -8
17 -9 -5 -1 -23 -2 -24 -11 -5 -8 17 -8 15 -4 -7 3 -17 1 -28 -6 -28 -6 0 -8
-7 -5 -16 3 -8 2 -12 -4 -9 -6 3 -10 -3 -10 -15 0 -13 -4 -19 -11 -14 -8 5
-10 -1 -7 -19 3 -15 2 -24 -3 -22 -4 3 -10 -9 -14 -26 -4 -19 -30 -54 -66 -90
-60 -60 -66 -69 -49 -69 6 0 10 7 10 16 0 8 5 12 10 9 6 -4 7 -11 4 -17 -4 -6
-1 -9 7 -6 8 3 15 10 15 16 3 25 5 27 14 12 11 -18 -17 -53 -36 -46 -8 3 -11
-1 -8 -9 5 -11 15 -7 45 17 43 34 47 41 23 31 -12 -4 -15 -2 -12 8 3 8 15 13
27 12 15 -2 31 11 56 45 62 84 74 132 81 322 7 168 3 215 -10 123z m-34 -275
c-8 -8 -9 -4 -5 13 4 13 8 18 11 10 2 -7 -1 -18 -6 -23z m-74 -155 c-2 -11 2
-17 10 -15 8 1 11 -2 7 -8 -10 -16 -35 8 -28 26 7 20 14 18 11 -3z"/>
<path d="M8877 4391 c83 -3 154 -9 158 -13 12 -12 -49 -36 -80 -32 -26 3 -26
3 -6 -4 l24 -7 -27 -13 c-15 -7 -32 -9 -38 -6 -6 4 -8 3 -5 -3 3 -5 -13 -20
-36 -33 -23 -13 -89 -56 -147 -95 -58 -40 -120 -80 -139 -89 -23 -13 -30 -21
-23 -28 8 -8 32 2 84 32 95 56 448 289 448 295 0 3 -82 4 -182 3 l-183 -2 152
-5z"/>
<path d="M7140 4372 c0 -11 39 -33 69 -38 25 -5 25 -4 6 9 -10 8 -26 12 -34 9
-8 -3 -12 -1 -8 5 4 6 0 14 -9 17 -20 8 -24 8 -24 -2z"/>
<path d="M7734 4195 c0 -77 2 -107 3 -67 2 40 2 103 0 140 -2 37 -3 4 -3 -73z"/>
<path d="M7275 4288 c11 -7 26 -18 34 -25 7 -8 32 -23 55 -35 41 -21 162 -95
181 -111 25 -21 178 -117 186 -117 5 0 8 12 8 28 -1 16 -3 20 -6 10 -2 -10 -7
-18 -9 -18 -6 0 -57 33 -64 41 -3 3 -36 25 -75 48 -38 23 -97 60 -130 82 -33
21 -71 44 -85 51 -14 7 -27 15 -30 19 -7 9 -67 39 -77 39 -4 0 1 -6 12 -12z"/>
<path d="M9653 4240 c0 -25 2 -35 4 -22 2 12 2 32 0 45 -2 12 -4 2 -4 -23z"/>
<path d="M8510 4049 c-41 -34 -33 -51 11 -22 21 14 36 29 33 34 -8 13 -16 11
-44 -12z"/>
<path d="M9453 3894 c-13 -6 -6 -34 8 -34 4 0 6 7 3 15 -7 18 7 20 26 3 12
-11 12 -10 1 5 -14 18 -18 19 -38 11z"/>
<path d="M9390 3850 c-8 -5 -10 -10 -5 -10 6 0 17 5 25 10 8 5 11 10 5 10 -5
0 -17 -5 -25 -10z"/>
<path d="M9480 3839 c-22 -18 -22 -19 -3 -10 12 6 25 16 28 21 9 15 3 12 -25
-11z"/>
<path d="M9313 3802 c-9 -5 -6 -12 10 -21 20 -13 21 -13 9 1 -10 13 -10 17 0
21 7 3 9 6 3 6 -5 0 -15 -3 -22 -7z"/>
<path d="M9385 3774 l-30 -26 33 22 c17 12 32 23 32 26 0 7 -4 5 -35 -22z"/>
<path d="M9295 3714 l-30 -26 35 23 c45 29 45 29 34 29 -5 0 -22 -12 -39 -26z"/>
<path d="M11354 2798 c-4 -6 -2 -14 4 -16 7 -2 12 -21 12 -43 0 -31 4 -39 18
-39 14 0 17 8 17 42 0 24 6 43 13 46 7 2 10 8 6 13 -8 13 -62 11 -70 -3z"/>
<path d="M11447 2803 c-4 -3 -7 -28 -7 -55 0 -36 4 -48 15 -48 8 0 15 8 15 17
0 9 3 13 7 10 3 -4 12 -2 20 4 10 9 13 7 13 -11 0 -15 5 -20 18 -18 25 5 31
98 6 98 -9 0 -22 -8 -29 -17 -11 -15 -13 -15 -24 5 -12 22 -23 27 -34 15z"/>
<path d="M7304 2776 c-202 -51 -313 -257 -244 -452 52 -149 187 -232 361 -222
137 8 252 91 299 216 31 82 25 206 -14 285 -67 138 -244 214 -402 173z m141
-147 c73 -21 135 -106 135 -188 0 -111 -110 -205 -218 -185 -100 18 -154 82
-155 184 0 83 31 137 102 173 60 30 78 32 136 16z"/>
<path d="M7936 2770 c-69 -27 -114 -73 -132 -137 -14 -48 -14 -58 1 -110 28
-96 82 -129 250 -153 101 -15 117 -23 113 -58 -8 -67 -131 -78 -241 -22 -31
17 -61 30 -66 30 -6 0 -56 -82 -79 -131 -5 -11 135 -69 194 -80 62 -12 172 -5
227 13 83 28 137 102 137 188 0 49 -26 115 -56 142 -38 33 -115 60 -192 65
-85 6 -127 23 -137 53 -24 74 117 103 232 47 50 -24 52 -23 96 55 l27 47 -22
16 c-76 53 -259 71 -352 35z"/>
<path d="M5326 2728 c-13 -29 -55 -123 -93 -208 -79 -173 -157 -353 -167 -387
-7 -23 -6 -23 79 -23 l86 0 25 55 25 55 138 0 138 0 19 -52 19 -53 88 -3 88
-3 -7 28 c-6 27 -172 421 -240 571 l-33 72 -71 0 -70 0 -24 -52z m140 -272
c19 -49 33 -90 32 -91 -2 -2 -38 -5 -80 -7 -55 -2 -78 0 -78 8 0 24 73 185 82
182 5 -2 25 -44 44 -92z"/>
<path d="M5818 2628 c-4 -257 1 -327 27 -384 37 -83 118 -133 229 -141 104 -8
177 15 237 75 67 67 79 115 79 317 0 89 -3 190 -6 224 l-7 61 -78 0 -78 0 -3
-229 c-3 -214 -4 -231 -24 -257 -38 -51 -128 -56 -181 -9 l-28 23 -3 236 -3
236 -80 0 -79 0 -2 -152z"/>
<path d="M6457 2773 c-4 -3 -7 -37 -7 -75 l0 -68 104 0 104 0 -5 -260 -4 -260
88 0 88 0 -3 260 -4 260 111 0 111 0 0 75 0 75 -288 0 c-159 0 -292 -3 -295
-7z"/>
<path d="M8420 2445 l0 -335 90 0 90 0 0 168 c1 190 -3 188 76 47 25 -44 61
-102 81 -129 l36 -50 24 30 c13 16 53 78 90 137 36 59 69 110 73 112 4 2 7
-66 6 -153 l-1 -157 83 -3 82 -3 2 311 c1 170 2 320 2 333 1 21 -3 22 -78 22
l-79 0 -46 -75 c-26 -41 -71 -117 -100 -168 -45 -78 -56 -92 -67 -80 -7 7 -55
83 -106 168 l-94 155 -82 3 -82 3 0 -336z"/>
<path d="M9491 2758 c-5 -13 -39 -93 -76 -178 -110 -252 -195 -454 -195 -462
0 -5 40 -8 88 -8 l88 0 25 53 24 52 135 0 135 0 19 -52 19 -53 93 0 93 0 -15
43 c-14 41 -67 162 -204 472 l-66 150 -77 3 c-73 3 -78 1 -86 -20z m132 -308
l35 -85 -75 -3 c-42 -2 -77 -1 -80 1 -2 3 13 46 33 96 20 51 40 89 44 84 5 -4
24 -46 43 -93z"/>
<path d="M10017 2773 c-4 -3 -7 -154 -7 -335 l0 -328 91 0 91 0 -4 100 -5 100
52 0 51 0 50 -97 50 -98 97 -3 c53 -1 97 0 97 3 0 3 -27 53 -61 112 -52 92
-58 108 -44 116 79 44 122 129 112 224 -10 95 -70 168 -166 201 -36 13 -392
17 -404 5z m356 -155 c45 -24 58 -63 36 -111 -16 -36 -50 -47 -139 -47 l-78 0
-4 63 c-6 111 -8 107 83 107 44 0 90 -5 102 -12z"/>
<path d="M10620 2705 l0 -75 100 0 100 0 0 -260 0 -260 85 0 85 0 0 260 0 260
110 0 111 0 -3 73 -3 72 -292 3 -293 2 0 -75z"/>
<path d="M5870 1927 c-75 -40 -112 -145 -76 -215 68 -130 291 -125 346 8 17
42 7 113 -21 155 -50 73 -164 97 -249 52z m131 -68 c30 -16 48 -66 38 -103
-12 -40 -34 -56 -80 -56 -29 0 -42 6 -58 26 -59 75 19 177 100 133z"/>
<path d="M7675 1934 c-72 -37 -103 -98 -90 -181 8 -54 52 -107 101 -123 53
-18 158 -9 191 16 38 28 37 36 -2 63 -31 21 -36 22 -50 7 -24 -23 -90 -21
-115 4 -31 31 -28 102 6 129 32 25 74 27 115 6 28 -15 30 -14 55 10 30 30 25
41 -30 66 -51 23 -140 25 -181 3z"/>
<path d="M9733 1943 l-33 -4 0 -154 c0 -92 4 -156 10 -160 6 -3 30 -3 55 1 38
5 45 10 44 28 -4 50 0 56 39 56 60 1 120 33 138 76 20 48 10 86 -32 124 -30
26 -43 30 -92 30 -31 0 -66 2 -77 4 -11 2 -35 1 -52 -1z m155 -112 c5 -30 -20
-51 -60 -51 -26 0 -28 3 -28 41 l0 40 43 -3 c36 -3 42 -6 45 -27z"/>
<path d="M10143 1935 c-2 -6 -2 -78 -1 -160 l3 -150 50 0 50 0 3 37 c3 34 5
37 45 43 109 17 147 48 147 119 0 45 -18 78 -53 98 -28 17 -238 27 -244 13z
m185 -87 c30 -30 1 -68 -52 -68 -24 0 -26 4 -26 40 0 39 1 40 33 40 18 0 38
-5 45 -12z"/>
<path d="M5422 1783 l3 -158 50 0 50 0 3 53 3 52 58 0 59 0 4 35 4 35 -62 0
c-61 0 -62 0 -66 30 l-5 30 72 0 73 0 6 31 c3 17 6 35 6 40 0 5 -59 9 -130 9
l-131 0 3 -157z"/>
<path d="M6302 1783 l3 -158 48 -3 47 -3 0 40 c0 55 28 56 64 1 25 -38 29 -40
76 -40 28 0 50 4 50 8 0 4 -14 27 -31 50 -17 23 -26 42 -20 42 20 0 51 64 51
105 0 86 -48 115 -190 115 l-101 0 3 -157z m186 46 c4 -30 -13 -46 -56 -55
l-32 -6 0 46 0 47 43 -3 c37 -3 42 -6 45 -29z"/>
<path d="M7046 1932 c-6 -9 -136 -303 -136 -306 0 -3 89 -1 103 2 4 1 12 13
17 27 9 23 15 25 69 25 52 0 62 -3 72 -22 7 -13 17 -26 23 -30 12 -9 96 -11
96 -3 0 5 -75 175 -117 263 l-24 52 -49 0 c-27 0 -51 -4 -54 -8z m84 -169 c0
-2 -13 -3 -30 -3 -35 0 -34 -3 -14 46 l16 38 14 -39 c7 -22 14 -41 14 -42z"/>
<path d="M8130 1913 c-7 -15 -35 -82 -62 -148 -27 -66 -52 -126 -55 -132 -4
-10 9 -13 44 -13 52 0 73 12 73 42 0 15 9 18 65 18 60 0 66 -2 74 -24 11 -28
29 -36 82 -36 49 0 51 -12 -35 176 l-65 139 -53 3 c-51 3 -55 1 -68 -25z m100
-152 c0 -9 -8 -11 -27 -6 -36 9 -34 5 -21 49 l12 37 17 -33 c10 -18 18 -39 19
-47z"/>
<path d="M8533 1864 c4 -42 7 -115 7 -161 l0 -84 48 3 c47 3 47 3 50 41 3 33
6 38 25 35 13 -2 30 -18 42 -40 19 -36 22 -38 73 -38 28 0 52 4 52 9 0 10 -39
63 -54 73 -6 4 1 16 17 28 56 44 53 140 -6 184 -24 18 -46 22 -144 24 l-116 4
6 -78z m195 -35 c4 -30 -13 -46 -56 -55 l-32 -6 0 46 0 47 43 -3 c37 -3 42 -6
45 -29z"/>
<path d="M9270 1855 c-22 -48 -40 -88 -40 -90 0 -2 -13 -33 -30 -68 -16 -36
-30 -68 -30 -71 0 -3 22 -6 48 -6 51 0 72 12 72 42 0 15 9 18 65 18 37 0 65
-4 65 -10 0 -26 41 -50 85 -50 25 0 45 4 45 8 0 5 -31 76 -68 158 l-69 149
-52 3 -51 3 -40 -86z m103 -42 c2 -10 8 -26 12 -35 6 -15 2 -18 -24 -18 -17 0
-31 2 -31 4 0 1 5 17 11 35 12 35 24 40 32 14z"/>
</g>
</svg>
