<?xml version="1.0" standalone="no"?>
<!DOCTYPE svg PUBLIC "-//W3C//DTD SVG 20010904//EN"
 "http://www.w3.org/TR/2001/REC-SVG-20010904/DTD/svg10.dtd">
<svg version="1.0" xmlns="http://www.w3.org/2000/svg"
 width="1024.000000pt" height="1024.000000pt" viewBox="0 0 1024.000000 1024.000000"
 preserveAspectRatio="xMidYMid meet">

<g transform="translate(0.000000,1024.000000) scale(0.100000,-0.100000)"
fill="#000000" stroke="none">
<path d="M4686 9766 c-97 -36 -166 -134 -166 -236 0 -105 40 -170 144 -234
221 -135 980 -600 1091 -669 164 -102 205 -120 271 -119 164 1 289 167 245
325 -27 95 -56 119 -367 306 -159 96 -440 266 -624 379 -184 113 -357 217
-384 231 -59 31 -152 38 -210 17z"/>
<path d="M4533 9203 c-26 -38 -114 -182 -408 -667 -239 -394 -247 -409 -229
-426 11 -9 165 -107 344 -217 179 -110 451 -278 605 -373 154 -96 289 -175
300 -177 16 -3 40 28 133 176 l114 181 51 -34 c29 -18 207 -133 397 -256 190
-122 462 -297 605 -388 143 -91 368 -236 500 -322 319 -208 927 -588 970 -606
49 -20 151 -18 202 5 156 71 204 287 92 414 -20 24 -61 56 -90 71 -160 86
-1767 1030 -2311 1358 l-196 119 105 172 c58 94 110 178 116 186 15 17 17 15
-203 148 -184 112 -1006 617 -1052 647 -26 17 -26 16 -45 -11z"/>
<path d="M3605 8044 c-141 -50 -208 -224 -139 -362 14 -29 40 -63 58 -76 51
-39 950 -600 1241 -775 52 -31 69 -36 135 -39 67 -3 81 -1 130 25 61 32 112
96 131 166 22 82 -6 191 -63 244 -13 12 -158 105 -323 206 -165 101 -437 269
-605 372 -168 104 -333 204 -368 222 -71 37 -128 42 -197 17z"/>
<path d="M5215 6470 c-238 -12 -342 -38 -432 -109 -26 -21 -124 -91 -218 -156
-93 -65 -244 -173 -335 -240 -197 -146 -369 -265 -426 -293 -54 -27 -180 -40
-979 -97 -810 -58 -1160 -101 -1275 -158 -51 -25 -51 -25 -151 -255 -73 -169
-78 -173 -249 -232 -193 -67 -213 -87 -218 -219 -4 -83 -3 -89 24 -120 32 -38
69 -56 134 -66 41 -6 48 -11 75 -58 39 -67 64 -141 64 -193 1 -23 7 -46 13
-52 16 -13 291 -32 447 -32 74 1 130 6 156 15 30 11 66 13 143 8 l103 -6 33
-51 c105 -165 286 -291 467 -327 84 -16 258 -6 339 20 136 43 290 162 375 289
l40 60 130 0 c72 -1 547 2 1057 6 844 7 928 6 951 -9 21 -14 55 -15 258 -12
129 3 253 8 275 12 30 5 50 2 72 -9 25 -13 66 -16 211 -16 109 0 182 4 186 10
7 11 101 12 127 2 9 -4 36 -34 60 -67 140 -189 346 -299 563 -298 184 1 342
64 475 190 43 40 92 94 109 120 l30 46 175 -2 c259 -3 660 31 738 63 20 8 99
16 202 20 93 4 180 12 195 17 43 17 70 50 86 103 17 58 12 69 -45 84 l-35 9
55 8 c72 10 122 30 139 56 17 28 16 191 -1 227 -13 26 -18 27 -96 30 -93 3
-87 -4 -95 110 -7 94 -38 136 -176 246 -194 155 -192 179 28 346 143 109 184
150 179 181 -5 37 -46 35 -126 -5 -39 -20 -108 -51 -154 -69 l-83 -34 -180 18
c-99 10 -245 25 -325 34 l-144 16 -221 114 c-312 161 -660 312 -1060 461 -94
35 -140 58 -165 82 -61 59 -107 74 -350 116 -330 56 -815 84 -1175 66z m-356
-179 l20 -28 -177 -175 c-97 -96 -199 -196 -227 -221 -55 -52 -53 -60 18 -71
l40 -7 236 234 c267 265 258 259 436 277 212 20 664 8 901 -25 325 -45 628
-151 978 -343 179 -98 228 -137 246 -200 19 -62 5 -84 -81 -128 -127 -63 -168
-68 -579 -68 -214 0 -382 4 -405 10 -30 8 54 12 345 17 418 7 502 17 622 70
67 30 81 50 68 99 -13 46 -23 53 -170 138 -419 241 -768 353 -1213 389 -158
13 -656 14 -754 1 -119 -15 -147 -36 -396 -287 l-227 -228 0 -50 0 -50 162
170 c275 288 351 363 381 370 15 4 31 5 34 1 6 -6 -114 -326 -182 -486 l-32
-75 -181 0 -180 0 -12 -38 c-17 -58 -44 -70 -147 -66 l-87 4 0 -35 c-1 -35 -1
-35 -52 -38 -38 -2 -56 2 -74 16 -23 19 -24 19 -8 76 10 35 13 56 6 56 -27 0
-138 -71 -188 -120 -109 -107 -125 -183 -117 -530 6 -219 23 -392 45 -450 l10
-25 868 6 c1001 7 947 2 1038 93 80 81 187 317 276 609 29 99 32 117 27 195
-4 48 -9 102 -13 120 -10 53 14 38 31 -20 32 -108 16 -230 -59 -446 -93 -267
-175 -431 -251 -501 -95 -86 -29 -81 -1051 -81 -851 0 -903 1 -908 18 -23 71
-38 246 -43 489 -6 305 0 363 49 454 34 65 61 93 135 142 48 31 63 54 27 40
-25 -9 -165 8 -158 19 5 7 53 9 146 5 l139 -6 -3 32 -3 32 -97 3 c-54 1 -98 6
-97 10 1 21 659 500 791 576 25 15 52 33 58 41 16 19 15 20 39 -14z m1036
-105 c201 -21 355 -47 355 -59 0 -14 -149 -467 -161 -489 -9 -17 -45 -18 -554
-18 -336 0 -545 4 -545 9 0 46 194 535 223 564 19 19 30 20 281 14 144 -4 324
-13 401 -21z m1058 -52 c307 -116 697 -289 868 -384 88 -49 113 -59 138 -54
28 6 31 4 31 -17 0 -21 25 -37 192 -124 257 -135 481 -265 668 -391 85 -57
166 -113 180 -124 25 -20 25 -20 3 -20 -13 0 -71 33 -130 73 -161 109 -563
347 -716 423 -40 20 -173 92 -297 160 -280 153 -616 304 -1072 479 -54 20 -98
41 -98 47 0 16 54 0 233 -68z m-536 -39 c51 -13 136 -41 190 -61 196 -72 588
-281 588 -314 0 -20 -58 -57 -119 -76 -28 -8 -118 -19 -201 -24 -160 -10 -678
-13 -687 -5 -3 3 24 96 59 208 35 111 66 223 70 250 3 26 6 47 7 47 1 0 43
-11 93 -25z m2178 -570 c66 -8 165 -15 219 -15 71 0 97 -3 89 -11 -22 -22
-159 -25 -338 -8 -186 19 -205 22 -205 39 0 14 92 12 235 -5z m-2614 -141 c64
-19 91 -40 87 -68 -4 -27 -109 -67 -188 -73 -47 -3 -65 2 -120 29 -51 26 -66
38 -68 58 -4 33 27 52 103 60 99 12 129 11 186 -6z m-4375 -77 c-104 -228
-188 -358 -215 -332 -9 10 48 163 103 275 45 94 55 106 86 117 59 20 61 17 26
-60z m1339 -65 c116 -31 230 -96 316 -182 132 -130 186 -256 240 -554 22 -124
39 -170 76 -209 21 -21 24 -30 15 -39 -9 -9 -18 -7 -39 8 -34 25 -61 102 -98
274 -53 249 -104 357 -225 481 -130 131 -304 199 -507 199 -196 -1 -347 -62
-478 -194 -44 -45 -97 -110 -118 -146 -63 -109 -110 -283 -132 -487 -5 -42
-12 -63 -22 -68 -9 -3 -18 -3 -21 -1 -7 7 16 186 39 299 69 343 275 569 578
633 89 18 283 12 376 -14z m4550 -56 c49 -15 121 -44 160 -64 123 -65 268
-223 282 -307 8 -50 -7 -43 -41 18 -16 28 -66 88 -110 133 -98 98 -202 154
-341 183 -389 82 -697 -34 -844 -318 -45 -88 -68 -157 -111 -331 -17 -69 -40
-143 -49 -166 -17 -38 -66 -84 -89 -84 -28 0 -20 25 16 56 45 38 57 68 97 239
14 61 35 139 46 175 69 213 209 373 392 447 104 42 177 53 347 49 133 -3 168
-7 245 -30z m1593 -222 c4 -15 -15 -16 -210 -9 -251 8 -236 14 -278 -116 l-26
-80 -279 -2 c-198 -1 -279 1 -282 9 -6 19 52 24 298 24 l238 0 12 42 c13 50
44 115 68 141 15 18 30 19 236 13 193 -5 220 -8 223 -22z m-6247 -12 c310 -81
442 -439 259 -701 -68 -97 -185 -171 -304 -191 -192 -34 -393 77 -484 267 -36
76 -37 81 -37 193 0 114 1 117 38 192 98 199 312 296 528 240z m4491 -3 c74
-16 162 -62 219 -116 190 -178 197 -445 17 -638 -178 -191 -446 -193 -640 -4
-161 158 -184 400 -53 578 108 147 284 216 457 180z m1659 -84 c-2 -27 -4 -58
-5 -67 0 -15 -9 -18 -47 -18 -111 0 -289 14 -289 22 0 6 7 34 16 64 l16 54
156 -2 156 -3 -3 -50z m105 -6 c-10 -89 -16 -98 -44 -80 -11 6 -12 24 -7 75 7
62 9 66 32 66 25 0 26 -1 19 -61z m-7643 -9 l137 0 0 -25 0 -25 -285 0 c-176
0 -285 4 -285 10 0 20 48 34 135 41 50 4 106 5 125 3 19 -2 97 -4 173 -4z
m567 -15 c0 -10 -16 -15 -62 -17 l-62 -3 -17 -57 c-9 -31 -22 -86 -29 -122 -8
-44 -17 -66 -26 -66 -19 0 -17 28 14 155 l27 110 35 6 c69 12 120 10 120 -6z
m-359 -17 c-4 -13 -18 -74 -31 -136 -14 -67 -28 -111 -34 -109 -14 5 -9 62 15
166 22 95 25 101 44 101 11 0 12 -6 6 -22z m49 -40 c-10 -35 -23 -96 -30 -135
-9 -48 -18 -73 -27 -73 -18 0 -16 38 7 142 21 97 34 128 54 128 11 0 10 -12
-4 -62z m60 -10 c-10 -40 -24 -101 -31 -135 -7 -41 -16 -63 -25 -63 -17 0 -17
3 1 92 25 119 44 178 59 178 11 0 11 -13 -4 -72z m70 68 c0 -3 -11 -53 -25
-113 -14 -59 -28 -118 -31 -130 -6 -32 -24 -29 -24 5 0 30 32 170 49 215 6 15
15 27 21 27 5 0 10 -2 10 -4z m-266 -113 c-15 -69 11 -63 -272 -63 -141 0
-274 -3 -294 -6 l-38 -7 0 52 0 51 305 0 305 0 -6 -27z m7733 -3 c7 -14 13
-53 13 -87 0 -57 -2 -63 -20 -63 -26 0 -28 7 -32 103 -3 65 -1 77 12 75 8 -2
20 -14 27 -28z m-1344 6 c6 6 9 -6 42 -135 25 -97 53 -166 78 -189 48 -45 76
-49 402 -57 348 -9 364 -19 55 -36 -246 -14 -348 -9 -416 20 -95 41 -116 76
-164 276 -35 147 -34 141 -17 126 8 -6 17 -8 20 -5z m1245 -28 l3 -28 -203 0
c-112 0 -254 3 -316 7 -96 5 -112 9 -110 22 3 14 36 17 263 21 384 9 359 10
363 -22z m12 -65 c0 -5 3 -18 6 -30 l6 -23 -284 0 c-323 0 -378 4 -378 30 0 9
3 20 7 23 9 10 643 9 643 0z m-7680 -33 c-6 -12 -21 -25 -34 -29 -12 -5 -118
-7 -236 -4 -213 5 -260 13 -260 43 0 6 101 10 270 10 270 0 271 0 260 -20z
m4830 -169 c-1 -36 35 -35 -1417 -33 -1306 3 -1398 4 -1401 20 -3 16 87 17
1408 18 775 1 1410 -1 1410 -5z m2820 -59 c0 -4 -7 -18 -17 -31 -16 -24 -18
-24 -141 -18 -68 3 -127 9 -131 12 -3 4 5 15 18 26 20 16 40 19 147 19 68 0
124 -3 124 -8z"/>
<path d="M4325 5781 c-82 -20 -108 -53 -117 -150 -4 -42 -10 -93 -14 -113 l-6
-38 36 0 c33 0 36 2 36 29 0 17 6 33 13 38 6 4 53 6 102 4 120 -4 127 3 123
125 l-3 88 -50 13 c-55 14 -75 15 -120 4z"/>
<path d="M5798 5346 c-74 -13 -88 -20 -70 -38 13 -13 244 -25 287 -14 33 8 35
51 3 60 -36 9 -146 5 -220 -8z"/>
<path d="M2627 4890 c-107 -27 -204 -107 -254 -208 -25 -51 -28 -67 -28 -162
0 -96 3 -110 29 -165 79 -160 258 -257 418 -225 167 32 291 157 317 318 37
229 -133 436 -367 448 -42 2 -94 -1 -115 -6z m187 -80 c7 -7 -50 -92 -95 -144
-4 -4 -17 11 -29 34 -28 55 -50 117 -43 123 7 8 157 -4 167 -13z m-164 -100
c29 -72 29 -84 4 -88 -19 -3 -22 3 -27 65 -3 37 -8 79 -12 93 -7 29 -1 18 35
-70z m-63 14 c18 -71 17 -84 -9 -84 -36 1 -122 26 -125 37 -5 14 95 105 109
101 7 -3 18 -27 25 -54z m244 -24 c-8 -44 -18 -80 -21 -80 -4 0 -14 8 -23 18
-14 16 -13 22 20 80 19 34 36 62 37 62 1 0 -5 -36 -13 -80z m138 24 c18 -20
30 -41 29 -46 -2 -6 -32 -22 -66 -36 -83 -34 -90 -25 -56 66 30 81 36 82 93
16z m21 -114 c-127 -69 -120 -67 -136 -46 -19 26 -9 36 34 37 20 0 57 9 82 19
69 29 81 23 20 -10z m-377 -9 c9 -1 9 -33 -1 -49 -7 -10 -27 -4 -90 25 -45 21
-81 40 -82 43 0 3 37 0 83 -6 45 -7 85 -13 90 -13z m156 -21 c10 -5 24 -23 31
-40 10 -25 10 -34 -4 -55 -37 -56 -105 -55 -126 1 -14 36 -13 48 11 78 21 27
56 34 88 16z m266 -77 c-4 -43 -9 -80 -12 -83 -7 -7 -89 40 -113 65 l-21 22
53 28 c29 15 57 31 63 36 5 5 15 9 23 9 11 0 12 -15 7 -77z m-533 40 c73 -28
74 -32 22 -70 -50 -35 -88 -42 -97 -19 -3 7 -9 34 -12 60 -7 45 -7 46 19 46
14 0 45 -7 68 -17z m143 -123 c-3 -4 -30 -8 -62 -8 -54 -1 -90 -8 -137 -28
-13 -5 -17 -4 -13 4 4 6 24 16 45 23 20 7 57 25 82 40 l45 29 22 -27 c12 -15
20 -30 18 -33z m243 31 c15 -10 53 -31 85 -46 74 -36 68 -44 -7 -9 -32 14 -75
28 -96 31 -35 5 -38 8 -29 24 12 23 15 23 47 0z m-178 -48 c0 -7 -102 -183
-106 -183 -2 0 10 28 26 63 17 34 30 76 30 92 0 25 4 30 25 31 14 1 25 0 25
-3z m108 -89 c26 -86 24 -110 -3 -37 -9 27 -24 58 -32 71 -13 21 -11 42 5 42
4 0 17 -34 30 -76z m108 56 c32 -11 62 -24 67 -29 8 -8 -95 -111 -112 -111 -6
0 -15 19 -21 43 -6 23 -15 55 -20 71 -6 16 -10 33 -10 37 0 14 33 10 96 -11z
m-302 -17 c-4 -16 -15 -48 -25 -72 l-19 -43 -51 46 c-28 25 -55 46 -60 46 -5
0 -9 4 -9 9 0 11 96 39 138 40 30 1 32 -1 26 -26z m153 -79 c18 -32 33 -64 33
-69 0 -6 -36 -11 -86 -12 -99 -2 -97 -6 -36 89 20 32 41 56 46 55 5 -2 25 -30
43 -63z"/>
<path d="M7135 4877 c-114 -38 -200 -113 -249 -217 -27 -57 -31 -75 -31 -150
1 -118 28 -185 109 -266 35 -35 86 -73 121 -90 54 -26 70 -29 160 -29 93 0
105 2 166 32 80 39 150 111 187 191 24 50 27 69 27 162 0 94 -3 111 -28 161
-35 71 -120 152 -194 186 -70 31 -204 41 -268 20z m201 -79 c6 -6 -96 -147
-107 -148 -10 0 -72 148 -66 157 6 9 163 1 173 -9z m-153 -143 c18 -32 10 -49
-18 -43 -13 2 -17 16 -19 58 -2 30 -6 71 -10 90 -4 21 1 13 12 -20 11 -30 27
-68 35 -85z m-85 78 c25 -89 25 -103 2 -103 -28 0 -113 21 -124 31 -4 4 -1 18
8 31 16 23 84 78 96 78 4 0 12 -17 18 -37z m250 -51 c-7 -39 -14 -72 -18 -72
-3 0 -14 6 -24 13 -18 13 -17 17 15 75 19 33 35 60 36 58 1 -1 -3 -34 -9 -74z
m132 32 c41 -41 43 -46 28 -58 -26 -19 -126 -51 -135 -43 -10 10 39 147 52
147 6 0 31 -21 55 -46z m76 -81 c-7 -8 -80 -51 -134 -79 -32 -18 -47 -14 -54
14 -2 9 9 15 33 17 21 2 63 15 95 29 64 27 71 30 60 19z m-492 -32 c37 -6 71
-12 74 -15 3 -3 0 -17 -6 -31 l-12 -25 -70 35 c-38 19 -76 35 -85 35 -8 0 -15
5 -15 10 0 6 10 8 23 5 12 -3 53 -9 91 -14z m216 -26 c69 -35 49 -135 -27
-135 -68 0 -98 76 -48 125 28 29 36 30 75 10z m276 -36 c-3 -17 -6 -51 -6 -76
0 -30 -5 -45 -15 -50 -16 -6 -125 60 -125 76 0 11 119 79 139 80 10 1 12 -7 7
-30z m-523 -12 c26 -10 47 -24 47 -28 0 -13 -91 -69 -112 -69 -24 0 -38 30
-38 85 0 44 1 45 28 39 15 -4 48 -16 75 -27z m115 -105 c-2 -9 -23 -15 -65
-17 -34 -2 -78 -11 -99 -20 -71 -30 -45 -6 43 37 80 40 90 43 106 29 10 -8 16
-21 15 -29z m325 -19 c32 -14 56 -28 54 -30 -2 -2 -34 8 -71 22 -36 14 -75 25
-86 25 -23 0 -26 10 -8 28 9 9 17 8 32 -3 12 -9 47 -27 79 -42z m-260 -19 c-2
-12 -93 -170 -93 -162 0 3 11 30 25 60 14 29 25 67 25 84 0 26 4 30 23 29 12
-2 21 -6 20 -11z m133 -139 c3 -11 -11 13 -32 54 -28 58 -33 75 -23 82 13 7
29 -32 55 -136z m96 114 c37 -12 68 -26 68 -31 0 -14 -98 -108 -113 -108 -9 0
-22 28 -35 74 -12 41 -22 77 -22 80 0 11 35 6 102 -15z m-302 3 c0 -11 -38
-114 -45 -120 -3 -4 -12 -2 -19 3 -7 6 -34 25 -59 44 -26 19 -47 38 -47 41 0
4 21 14 48 23 50 17 122 22 122 9z m145 -95 c19 -35 35 -68 35 -73 0 -5 -38
-10 -85 -10 -47 -1 -85 1 -85 5 0 15 82 141 92 141 4 0 23 -29 43 -63z"/>
<path d="M4935 3434 c-144 -32 -227 -89 -277 -192 -30 -60 -33 -75 -33 -157 0
-76 4 -99 26 -145 51 -109 115 -160 315 -250 194 -87 224 -115 224 -204 0 -87
-79 -136 -219 -136 -115 0 -196 24 -343 98 -5 2 -8 -55 -8 -126 l0 -129 73
-21 c108 -31 180 -42 286 -42 229 1 390 81 460 229 23 49 26 68 26 161 0 94
-3 110 -27 156 -44 84 -112 136 -304 230 -204 100 -234 127 -234 203 0 38 5
53 25 74 57 57 201 59 355 6 46 -16 88 -29 92 -29 4 0 8 56 8 123 l0 124 -77
17 c-112 25 -281 30 -368 10z"/>
<path d="M1135 3408 c-3 -7 -108 -289 -235 -626 -126 -338 -230 -616 -230
-618 0 -2 60 -4 133 -4 l132 0 48 138 47 137 222 0 c186 0 222 -2 229 -15 5
-8 27 -70 50 -137 l41 -123 149 0 148 0 -28 78 c-16 42 -67 185 -115 317 -47
132 -137 380 -199 550 l-113 310 -137 3 c-105 2 -139 0 -142 -10z m202 -523
c36 -110 68 -206 70 -212 4 -10 -29 -13 -147 -13 -141 0 -152 1 -145 18 6 16
88 270 122 377 20 64 27 75 31 50 2 -11 33 -110 69 -220z"/>
<path d="M3172 3299 c-146 -28 -132 -14 -132 -135 l0 -104 -75 0 -75 0 0 -95
0 -95 75 0 75 0 0 -263 c0 -280 6 -325 49 -386 12 -17 43 -43 69 -58 44 -26
54 -28 162 -28 93 0 123 4 159 20 l43 20 3 89 c4 87 3 88 -18 81 -73 -23 -118
-27 -147 -15 -56 23 -60 44 -60 305 l0 235 110 0 110 0 0 95 0 95 -110 0 -110
0 0 130 c0 118 -2 130 -17 129 -10 -1 -60 -9 -111 -20z"/>
<path d="M9080 3296 l-115 -21 -3 -108 -3 -107 -69 0 -70 0 0 -95 0 -95 70 0
70 0 0 -263 c0 -288 7 -338 57 -397 42 -50 97 -73 190 -78 78 -4 144 5 206 30
27 10 27 12 27 100 0 82 -2 90 -17 83 -57 -22 -113 -28 -143 -15 -56 23 -60
44 -60 305 l0 235 110 0 110 0 0 95 0 95 -110 0 -110 0 0 130 c0 98 -3 130
-12 129 -7 -1 -65 -11 -128 -23z"/>
<path d="M3980 3080 c-242 -38 -389 -217 -390 -475 0 -140 48 -261 138 -347
94 -90 192 -128 332 -128 233 0 412 135 461 346 26 117 9 277 -43 378 -26 52
-102 132 -153 162 -96 56 -233 81 -345 64z m170 -205 c73 -38 110 -113 118
-238 11 -200 -66 -317 -211 -317 -129 0 -204 121 -195 315 3 74 9 102 31 148
50 101 161 140 257 92z"/>
<path d="M6070 3080 c-66 -12 -99 -27 -157 -71 l-53 -40 0 46 0 45 -125 0
-125 0 0 -450 0 -450 125 0 125 0 0 307 0 306 40 38 c64 61 152 76 211 36 62
-42 64 -50 67 -384 l3 -303 134 0 135 0 2 317 3 318 54 32 c72 43 129 51 177
26 72 -37 74 -49 74 -390 l0 -303 131 0 130 0 -3 348 c-3 334 -4 349 -26 404
-24 60 -90 130 -140 149 -133 51 -296 18 -406 -84 l-46 -43 -29 47 c-49 79
-178 122 -301 99z"/>
<path d="M7498 3080 c-76 -9 -122 -22 -190 -52 l-48 -21 0 -103 0 -104 46 30
c75 47 139 65 234 65 128 0 178 -36 188 -133 l4 -49 -118 -6 c-189 -10 -295
-48 -371 -130 -52 -57 -78 -135 -70 -217 13 -143 105 -220 272 -228 111 -5
189 20 249 80 21 21 41 38 43 38 3 0 3 -22 1 -50 l-5 -50 140 0 c129 0 139 1
131 18 -4 9 -10 163 -13 342 l-6 325 -29 63 c-50 107 -137 163 -286 181 -46 6
-89 10 -95 10 -5 -1 -40 -5 -77 -9z m232 -582 l0 -81 -43 -41 c-73 -71 -173
-87 -229 -37 -28 25 -33 36 -33 74 0 56 26 94 81 122 38 19 141 42 197 44 l27
1 0 -82z"/>
<path d="M8617 3067 c-47 -15 -99 -56 -138 -109 l-29 -41 0 71 0 72 -130 0
-130 0 0 -450 0 -450 130 0 130 0 0 233 c0 127 5 252 11 277 26 114 98 165
225 158 l74 -3 0 121 c0 118 -1 122 -22 128 -34 9 -78 6 -121 -7z"/>
<path d="M1942 2718 c5 -380 9 -408 71 -490 48 -63 113 -92 214 -97 102 -4
170 16 242 70 l51 39 0 -40 0 -40 130 0 130 0 0 450 0 450 -130 0 -130 0 0
-309 0 -309 -27 -33 c-74 -88 -217 -91 -268 -6 -19 30 -20 55 -23 345 l-3 312
-130 0 -130 0 3 -342z"/>
</g>
</svg>
