<?xml version="1.0" standalone="no"?>
<!DOCTYPE svg PUBLIC "-//W3C//DTD SVG 20010904//EN"
 "http://www.w3.org/TR/2001/REC-SVG-20010904/DTD/svg10.dtd">
<svg version="1.0" xmlns="http://www.w3.org/2000/svg"
 width="472.000000pt" height="337.000000pt" viewBox="0 0 472.000000 337.000000"
 preserveAspectRatio="xMidYMid meet">

<g transform="translate(0.000000,337.000000) scale(0.100000,-0.100000)"
fill="#000000" stroke="none">
<path d="M2123 3184 c-18 -9 -42 -31 -53 -49 -41 -67 -17 -129 71 -183 253
-155 545 -313 588 -319 72 -10 131 47 131 125 0 59 -7 70 -62 98 -71 36 -484
270 -568 322 -42 26 -64 27 -107 6z"/>
<path d="M2036 2878 c-13 -24 -77 -135 -141 -248 -65 -113 -119 -208 -122
-212 -2 -4 23 -21 55 -37 32 -16 121 -67 198 -113 160 -97 319 -188 326 -188
3 0 27 34 54 75 27 41 53 75 59 75 16 0 701 -411 1109 -667 79 -49 116 -54
175 -23 49 24 75 77 68 132 -6 48 -34 79 -102 118 -64 36 -544 288 -790 415
-187 96 -356 185 -364 192 -2 1 21 41 52 88 32 47 57 87 57 89 0 3 -55 35
-122 72 -149 82 -274 154 -388 223 -47 28 -88 51 -92 51 -4 0 -18 -19 -32 -42z"/>
<path d="M1623 2360 c-58 -35 -79 -110 -49 -169 10 -18 41 -42 88 -66 133 -70
386 -214 445 -253 85 -57 114 -66 157 -52 45 15 77 59 84 116 4 40 2 46 -34
80 -31 29 -450 280 -582 348 -41 21 -70 20 -109 -4z"/>
<path d="M2275 1726 c-106 -21 -208 -68 -328 -149 -95 -64 -150 -83 -277 -96
-185 -20 -374 -66 -469 -115 -45 -24 -109 -83 -129 -120 -24 -45 -24 -209 1
-253 l18 -33 114 0 115 0 0 43 c1 89 45 161 124 202 93 47 196 27 268 -53 37
-41 46 -67 50 -152 3 -41 5 -45 28 -44 14 1 267 2 563 3 l537 1 0 48 c0 189
231 292 371 165 55 -50 69 -81 69 -153 l0 -62 88 4 c50 2 99 10 116 18 48 25
70 81 74 191 6 148 -16 191 -120 233 -29 12 -116 62 -193 111 -77 48 -163 101
-191 117 -88 48 -218 88 -322 98 -133 13 -434 11 -507 -4z m275 -201 c0 -92
-1 -95 -22 -96 -143 -4 -558 -3 -558 2 0 13 122 91 204 130 89 43 151 55 304
58 l72 1 0 -95z m305 70 c79 -18 141 -45 244 -108 l86 -52 -100 -6 c-55 -4
-178 -7 -272 -8 l-173 -1 0 101 0 101 78 -7 c42 -4 104 -13 137 -20z m-1555
-338 c0 -44 -135 -116 -164 -87 -16 16 21 47 90 75 69 29 74 29 74 12z"/>
<path d="M3038 1140 c-108 -57 -116 -201 -16 -268 102 -67 238 3 238 123 -1
66 -32 123 -82 145 -54 25 -93 24 -140 0z"/>
<path d="M1457 1128 c-39 -23 -77 -86 -77 -128 0 -13 9 -43 21 -66 26 -54 109
-100 160 -90 109 21 163 129 116 227 -36 73 -143 101 -220 57z"/>
<path d="M637 608 c-21 -62 -64 -193 -96 -290 l-59 -178 63 0 62 0 18 60 18
61 96 -3 96 -3 20 -58 20 -57 62 0 62 0 -78 228 c-43 125 -88 254 -100 287
-12 32 -21 61 -21 62 0 2 -28 3 -63 3 l-62 0 -38 -112z m132 -134 c17 -53 31
-101 31 -105 0 -5 -29 -9 -64 -9 l-64 0 31 105 c17 58 32 105 33 105 2 0 17
-43 33 -96z"/>
<path d="M2252 699 c-23 -12 -51 -32 -61 -45 -40 -51 -35 -151 9 -207 11 -14
43 -33 73 -43 114 -37 162 -76 150 -122 -13 -51 -91 -65 -192 -33 l-61 19 0
-53 c0 -53 1 -54 38 -67 20 -7 78 -13 128 -13 82 0 94 3 132 27 71 48 98 133
67 214 -20 52 -53 77 -163 118 -90 35 -109 62 -71 102 22 24 29 26 94 21 39
-3 80 -8 93 -12 21 -7 22 -5 22 42 0 49 -1 50 -39 61 -64 20 -170 15 -219 -9z"/>
<path d="M1528 662 l-48 -3 0 -55 c0 -53 0 -54 -30 -54 -29 0 -30 -2 -30 -45
0 -43 1 -45 28 -45 l29 0 -5 -79 c-6 -111 5 -186 32 -217 24 -29 88 -41 150
-30 35 7 36 9 36 49 0 43 0 43 -33 39 -57 -7 -67 13 -67 134 l0 104 45 0 45 0
0 45 0 45 -45 0 -45 0 0 54 c0 30 -3 56 -7 58 -5 2 -29 2 -55 0z"/>
<path d="M4090 661 l-45 -6 -3 -52 c-3 -51 -4 -53 -33 -53 -28 0 -29 -2 -29
-45 0 -43 1 -45 30 -45 l30 0 0 -122 c0 -68 3 -133 6 -145 10 -38 63 -63 132
-63 33 0 63 3 65 8 3 4 8 26 12 49 l7 43 -31 -6 c-20 -4 -39 -1 -56 10 -24 16
-25 20 -25 121 l0 105 50 0 50 0 0 45 0 45 -50 0 -50 0 0 60 c0 33 -3 59 -7
58 -5 0 -28 -4 -53 -7z"/>
<path d="M1865 551 c-75 -19 -119 -69 -136 -153 -14 -70 1 -148 38 -196 76
-100 252 -94 321 11 24 37 27 49 27 133 0 88 -1 94 -31 131 -17 21 -45 46 -62
56 -35 20 -113 30 -157 18z m101 -99 c32 -25 44 -55 44 -109 0 -112 -92 -165
-147 -84 -18 26 -23 48 -23 93 0 52 3 63 29 89 33 33 66 37 97 11z"/>
<path d="M2776 550 c-15 -5 -37 -17 -47 -26 -18 -16 -19 -16 -19 4 0 20 -5 22
-55 22 l-55 0 0 -205 0 -205 55 0 54 0 3 142 3 142 34 23 c34 23 63 23 86 1 6
-5 12 -76 13 -158 l4 -150 54 0 54 0 0 139 0 140 27 21 c36 28 83 24 100 -10
8 -16 13 -71 13 -157 l0 -133 55 0 55 0 0 149 c0 196 -15 240 -91 262 -47 15
-97 5 -145 -27 -33 -22 -38 -24 -46 -10 -22 39 -89 54 -152 36z"/>
<path d="M3348 545 l-48 -16 0 -45 c0 -46 0 -46 28 -39 67 17 133 17 153 -1
37 -33 25 -51 -42 -58 -66 -6 -136 -33 -157 -59 -23 -27 -26 -90 -7 -130 32
-67 131 -88 199 -42 33 22 36 23 36 6 0 -16 9 -20 51 -23 34 -2 53 1 56 9 3 7
3 74 1 150 -4 157 -21 209 -80 239 -44 23 -133 27 -190 9z m152 -264 c0 -58
-83 -94 -114 -49 -20 29 -20 34 4 58 14 14 33 20 65 20 43 0 45 -1 45 -29z"/>
<path d="M3855 544 c-16 -8 -38 -23 -47 -31 -17 -15 -18 -14 -18 10 0 26 -2
27 -52 27 l-53 0 0 -205 0 -205 58 0 57 0 0 126 c0 125 0 126 29 155 22 21 39
29 65 29 l36 0 0 55 c0 50 -2 55 -22 55 -13 0 -36 -7 -53 -16z"/>
<path d="M1022 388 c3 -132 7 -169 21 -195 33 -62 121 -82 185 -43 32 20 59
19 47 -1 -4 -5 18 -9 49 -9 l56 0 0 205 0 205 -55 0 -55 0 0 -143 c0 -163 -7
-179 -77 -181 -55 -2 -63 21 -63 187 l0 137 -56 0 -56 0 4 -162z"/>
</g>
</svg>
